<?xml version="1.0" encoding="UTF-8"?>
<!DOCTYPE svg PUBLIC "-//W3C//DTD SVG 1.1//EN" "http://www.w3.org/Graphics/SVG/1.1/DTD/svg11.dtd">
<!-- Creator: CorelDRAW 2026 -->
<svg xmlns="http://www.w3.org/2000/svg" xml:space="preserve" width="15.3861mm" height="16.0855mm" version="1.1" style="shape-rendering:geometricPrecision; text-rendering:geometricPrecision; image-rendering:optimizeQuality; fill-rule:evenodd; clip-rule:evenodd"
viewBox="0 0 9.22 9.64"
 xmlns:xlink="http://www.w3.org/1999/xlink"
 xmlns:xodm="http://www.corel.com/coreldraw/odm/2003">
 <defs>
  <style type="text/css">
   <![CDATA[
    .fil0 {fill:white}
   ]]>
  </style>
 </defs>
 <g id="Layer_x0020_1">
  <metadata id="CorelCorpID_0Corel-Layer"/>
  <path class="fil0" d="M-0 9.64l5.37 0 0 -5.18 -5.37 0 0 5.18zm2.2 -4.24l0.98 0 0 1.16 1.16 0 0 0.98 -1.16 0 0 1.16 -0.98 0 0 -1.16 -1.16 0 0 -0.98 1.16 0 0 -1.16z"/>
  <polygon class="fil0" points="-0,0 -0,3.2 9.22,3.2 9.22,0 "/>
  <polygon class="fil0" points="6.64,9.64 9.22,9.64 9.22,4.46 6.64,4.46 "/>
  <path class="fil0" d="M-0 9.64l5.37 0 0 -5.18 -5.37 0 0 5.18zm2.2 -4.24l0.98 0 0 1.16 1.16 0 0 0.98 -1.16 0 0 1.16 -0.98 0 0 -1.16 -1.16 0 0 -0.98 1.16 0 0 -1.16z"/>
  <polygon class="fil0" points="-0,0 -0,3.2 9.22,3.2 9.22,0 "/>
  <polygon class="fil0" points="6.64,9.64 9.22,9.64 9.22,4.46 6.64,4.46 "/>
 </g>
</svg>
