<?xml version="1.0" encoding="UTF-8"?>
<!DOCTYPE svg PUBLIC "-//W3C//DTD SVG 1.1//EN" "http://www.w3.org/Graphics/SVG/1.1/DTD/svg11.dtd">
<!-- Creator: CorelDRAW 2026 -->
<svg xmlns="http://www.w3.org/2000/svg" xml:space="preserve" width="59.2417mm" height="16.3219mm" version="1.1" style="shape-rendering:geometricPrecision; text-rendering:geometricPrecision; image-rendering:optimizeQuality; fill-rule:evenodd; clip-rule:evenodd"
viewBox="0 0 149.91 41.3"
 xmlns:xlink="http://www.w3.org/1999/xlink"
 xmlns:xodm="http://www.corel.com/coreldraw/odm/2003">
 <defs>
  <style type="text/css">
   <![CDATA[
    .fil0 {fill:#EB070F}
    .fil1 {fill:black;fill-rule:nonzero}
   ]]>
  </style>
 </defs>
 <g id="Layer_x0020_1">
  <metadata id="CorelCorpID_0Corel-Layer"/>
  <path class="fil0" d="M-0 41.3l22.68 0 0 -21.88 -22.68 0 0 21.88zm9.28 -17.91l4.13 0 0 4.9 4.9 0 0 4.13 -4.9 0 0 4.9 -4.13 0 0 -4.9 -4.9 0 0 -4.13 4.9 0 0 -4.9z"/>
  <polygon class="fil0" points="-0,0.6 -0,14.11 38.93,14.11 38.93,0.6 "/>
  <polygon class="fil0" points="28.02,41.3 38.93,41.3 38.93,19.42 28.02,19.42 "/>
  <path class="fil1" d="M59.18 30.1l5.56 0 0 -24.45 9.36 0 0 -5.06c-8.56,0 -15.77,0 -24.28,0l0 5.06 9.36 0 0 24.45z"/>
  <path id="_1" class="fil1" d="M91.35 0c-10.2,0 -15.18,7.8 -15.18,15.56 0,7.76 4.81,15.22 15.18,15.22 10.37,0 15.05,-7.63 15.13,-15.26 0.08,-7.72 -4.97,-15.51 -15.13,-15.51zm0 5.06c6.96,0 9.74,5.56 9.65,10.54 -0.08,4.85 -2.7,10.08 -9.65,10.08 -6.96,0 -9.57,-5.19 -9.7,-10.03 -0.13,-4.97 2.74,-10.58 9.7,-10.58z"/>
  <polygon id="_2" class="fil1" points="129.97,18.89 115.51,0.59 111,0.59 111,30.1 116.56,30.1 116.56,10.2 132.08,30.14 132.08,30.1 135.53,30.1 135.53,0.55 129.97,0.55 "/>
  <polygon id="_3" class="fil1" points="146.2,30.1 146.2,0.59 140.68,0.59 140.68,30.1 "/>
  <path class="fil1" d="M62.1 34.58c2.38,0 2.38,3.66 0,3.66l-2.58 0 0 -3.66 2.58 0zm0 4.16c3.1,0 3.1,-4.67 0,-4.67 -1.04,0 -2.09,0 -3.13,0l0 7.14 0.55 0 0 -2.47 2.58 0z"/>
  <polygon id="_1_6" class="fil1" points="66.69,34.07 66.69,41.21 71.26,41.21 71.26,40.69 67.24,40.69 67.24,34.07 "/>
  <path id="_2_7" class="fil1" d="M79.62 41.21l-3.2 -7.14 -0.6 0 -3.2 7.14 0.59 0 0.78 -1.75 4.26 0 0.79 1.75 0.59 0zm-5.43 -2.26l1.92 -4.35 1.92 4.35 -3.84 0z"/>
  <polygon id="_3_8" class="fil1" points="82.44,41.21 82.99,41.21 82.99,34.57 85.57,34.57 85.57,34.08 79.86,34.08 79.86,34.57 82.44,34.57 "/>
  <polygon id="_4" class="fil1" points="89.69,41.21 90.24,41.21 90.24,34.57 92.82,34.57 92.82,34.08 87.11,34.08 87.11,34.57 89.69,34.57 "/>
  <polygon id="_5" class="fil1" points="95.45,34.59 99.84,34.59 99.84,34.07 94.91,34.07 94.91,41.21 99.96,41.21 99.96,40.68 95.45,40.68 95.45,37.86 99.63,37.86 99.63,37.36 95.45,37.36 "/>
  <polygon id="_6" class="fil1" points="102.44,34.07 102.44,41.21 102.99,41.21 102.99,35.31 107.81,41.21 108.02,41.21 108.02,34.07 107.48,34.07 107.48,39.98 102.68,34.07 "/>
  <polygon id="_7" class="fil1" points="110.66,34.07 110.66,41.21 115.23,41.21 115.23,40.69 111.21,40.69 111.21,34.07 "/>
  <polygon id="_8" class="fil1" points="117.86,34.59 122.24,34.59 122.24,34.07 117.32,34.07 117.32,41.21 122.37,41.21 122.37,40.68 117.86,40.68 117.86,37.86 122.04,37.86 122.04,37.36 117.86,37.36 "/>
  <path id="_9" class="fil1" d="M130.56 35.04c-0.72,-0.71 -1.67,-1.07 -2.61,-1.07 -2.17,0 -3.69,1.46 -3.68,3.69 0,1.95 1.26,3.64 3.68,3.64 1.06,0 1.95,-0.41 2.69,-1.15l0 -2.67 -3.01 0 0 0.48 2.49 0 0 2c-0.61,0.56 -1.41,0.83 -2.17,0.83 -2.08,0 -3.15,-1.45 -3.15,-3.13 -0.01,-1.65 1.06,-3.18 3.15,-3.18 0.81,0 1.67,0.31 2.3,0.92l0.32 -0.35z"/>
  <polygon id="_10" class="fil1" points="133.72,34.59 138.11,34.59 138.11,34.07 133.18,34.07 133.18,41.21 138.23,41.21 138.23,40.68 133.72,40.68 133.72,37.86 137.9,37.86 137.9,37.36 133.72,37.36 "/>
  <path id="_11" class="fil1" d="M143.67 38.48c1.56,0 2.33,-1.02 2.32,-2.18 -0.01,-1.11 -0.8,-2.22 -2.35,-2.22 -1.05,0 -2.09,0 -3.14,0l0 7.14 0.55 0 0 -2.7 1.95 0 2.47 2.7 0.72 0 -2.52 -2.73zm-2.62 -3.9l2.59 0c1.18,0 1.75,0.87 1.74,1.7 -0.01,1 -0.56,1.7 -1.81,1.7l-2.53 0 0 -3.41z"/>
  <path class="fil1" d="M147.74 8.46c-0.24,0.25 -0.37,0.57 -0.37,0.89 0,0.85 0.63,1.27 1.3,1.27 0.63,0 1.23,-0.37 1.23,-1.27 0,-0.42 -0.16,-0.72 -0.43,-0.96l-1.01 0 0 1.03 0.41 0 0 -0.62 0.43 0c0.15,0.19 0.19,0.35 0.19,0.54 0,0.6 -0.41,0.83 -0.8,0.83 -0.5,0 -0.89,-0.31 -0.89,-0.83 0,-0.21 0.09,-0.45 0.24,-0.61l-0.29 -0.28z"/>
  <polygon id="_1_9" class="fil1" points="149.86,5.92 149.86,5.47 147.45,5.47 147.45,5.99 148.48,6.74 147.45,7.49 147.45,8.02 149.86,8.02 149.86,7.56 148.1,7.56 149.15,6.79 149.15,6.71 148.11,5.92 "/>
  <path id="_2_10" class="fil1" d="M148.81 4.61l0 -0.69c0,-0.19 0.11,-0.45 0.33,-0.45 0.23,0 0.29,0.26 0.29,0.45l0 0.69 -0.62 0zm-0.95 0l0 -0.69c0,-0.29 0.19,-0.38 0.3,-0.38 0.14,0 0.26,0.09 0.26,0.38l0 0.69 -0.55 0zm-0.41 -0.69c0,0.38 0,0.76 0,1.14l2.41 0c0,-0.38 0,-0.76 0,-1.14 0,-0.5 -0.17,-0.9 -0.71,-0.9 -0.15,0 -0.45,0.1 -0.54,0.39 -0.1,-0.22 -0.28,-0.31 -0.46,-0.31 -0.49,0 -0.7,0.35 -0.7,0.83z"/>
  <polygon id="_3_11" class="fil1" points="149.86,0.6 147.45,0.6 147.45,1.05 148.46,1.05 148.46,2.23 147.45,2.23 147.45,2.69 149.86,2.69 149.86,2.23 148.88,2.23 148.88,1.05 149.86,1.05 "/>
  <path class="fil0" d="M-0 41.3l22.68 0 0 -21.88 -22.68 0 0 21.88zm9.28 -17.91l4.13 0 0 4.9 4.9 0 0 4.13 -4.9 0 0 4.9 -4.13 0 0 -4.9 -4.9 0 0 -4.13 4.9 0 0 -4.9z"/>
  <polygon class="fil0" points="-0,0.6 -0,14.11 38.93,14.11 38.93,0.6 "/>
  <polygon class="fil0" points="28.02,41.3 38.93,41.3 38.93,19.42 28.02,19.42 "/>
  <path class="fil1" d="M59.18 30.1l5.56 0 0 -24.45 9.36 0 0 -5.06c-8.56,0 -15.77,0 -24.28,0l0 5.06 9.36 0 0 24.45z"/>
  <path id="_1_12" class="fil1" d="M91.35 0c-10.2,0 -15.18,7.8 -15.18,15.56 0,7.76 4.81,15.22 15.18,15.22 10.37,0 15.05,-7.63 15.13,-15.26 0.08,-7.72 -4.97,-15.51 -15.13,-15.51zm0 5.06c6.96,0 9.74,5.56 9.65,10.54 -0.08,4.85 -2.7,10.08 -9.65,10.08 -6.96,0 -9.57,-5.19 -9.7,-10.03 -0.13,-4.97 2.74,-10.58 9.7,-10.58z"/>
  <polygon id="_2_13" class="fil1" points="129.97,18.89 115.51,0.59 111,0.59 111,30.1 116.56,30.1 116.56,10.2 132.07,30.14 132.07,30.1 135.53,30.1 135.53,0.55 129.97,0.55 "/>
  <polygon id="_3_14" class="fil1" points="146.2,30.1 146.2,0.59 140.67,0.59 140.67,30.1 "/>
  <path class="fil1" d="M62.1 34.58c2.38,0 2.38,3.66 0,3.66l-2.58 0 0 -3.66 2.58 0zm0 4.16c3.1,0 3.1,-4.67 0,-4.67 -1.04,0 -2.09,0 -3.13,0l0 7.14 0.55 0 0 -2.47 2.58 0z"/>
  <polygon id="_1_15" class="fil1" points="66.69,34.07 66.69,41.21 71.26,41.21 71.26,40.69 67.24,40.69 67.24,34.07 "/>
  <path id="_2_16" class="fil1" d="M79.62 41.21l-3.2 -7.14 -0.6 0 -3.2 7.14 0.59 0 0.78 -1.75 4.27 0 0.79 1.75 0.59 0zm-5.43 -2.26l1.92 -4.35 1.92 4.35 -3.84 0z"/>
  <polygon id="_3_17" class="fil1" points="82.44,41.21 82.99,41.21 82.99,34.57 85.57,34.57 85.57,34.08 79.86,34.08 79.86,34.57 82.44,34.57 "/>
  <polygon id="_4_18" class="fil1" points="89.69,41.21 90.24,41.21 90.24,34.57 92.82,34.57 92.82,34.08 87.11,34.08 87.11,34.57 89.69,34.57 "/>
  <polygon id="_5_19" class="fil1" points="95.45,34.59 99.84,34.59 99.84,34.07 94.91,34.07 94.91,41.21 99.96,41.21 99.96,40.68 95.45,40.68 95.45,37.86 99.63,37.86 99.63,37.36 95.45,37.36 "/>
  <polygon id="_6_20" class="fil1" points="102.44,34.07 102.44,41.21 102.99,41.21 102.99,35.31 107.81,41.21 108.02,41.21 108.02,34.07 107.48,34.07 107.48,39.98 102.68,34.07 "/>
  <polygon id="_7_21" class="fil1" points="110.66,34.07 110.66,41.21 115.23,41.21 115.23,40.69 111.21,40.69 111.21,34.07 "/>
  <polygon id="_8_22" class="fil1" points="117.86,34.59 122.24,34.59 122.24,34.07 117.32,34.07 117.32,41.21 122.37,41.21 122.37,40.68 117.86,40.68 117.86,37.86 122.04,37.86 122.04,37.36 117.86,37.36 "/>
  <path id="_9_23" class="fil1" d="M130.56 35.04c-0.72,-0.71 -1.67,-1.07 -2.61,-1.07 -2.17,0 -3.69,1.46 -3.68,3.69 0,1.95 1.26,3.64 3.68,3.64 1.06,0 1.95,-0.41 2.69,-1.15l0 -2.67 -3.01 0 0 0.48 2.49 0 0 2c-0.61,0.56 -1.41,0.83 -2.17,0.83 -2.08,0 -3.15,-1.45 -3.15,-3.13 -0.01,-1.65 1.06,-3.18 3.15,-3.18 0.81,0 1.67,0.31 2.3,0.92l0.32 -0.35z"/>
  <polygon id="_10_24" class="fil1" points="133.72,34.59 138.11,34.59 138.11,34.07 133.18,34.07 133.18,41.21 138.23,41.21 138.23,40.68 133.72,40.68 133.72,37.86 137.9,37.86 137.9,37.36 133.72,37.36 "/>
  <path id="_11_25" class="fil1" d="M143.67 38.48c1.56,0 2.33,-1.02 2.32,-2.18 -0.01,-1.11 -0.8,-2.22 -2.35,-2.22 -1.05,0 -2.09,0 -3.14,0l0 7.14 0.55 0 0 -2.7 1.95 0 2.47 2.7 0.72 0 -2.52 -2.73zm-2.62 -3.9l2.59 0c1.18,0 1.75,0.87 1.74,1.7 -0.01,1 -0.56,1.7 -1.81,1.7l-2.53 0 0 -3.41z"/>
  <path class="fil1" d="M147.74 8.46c-0.24,0.25 -0.37,0.57 -0.37,0.89 0,0.85 0.63,1.27 1.3,1.27 0.63,0 1.23,-0.37 1.23,-1.27 0,-0.42 -0.16,-0.72 -0.43,-0.96l-1.01 0 0 1.03 0.41 0 0 -0.62 0.43 0c0.15,0.19 0.19,0.35 0.19,0.54 0,0.6 -0.41,0.83 -0.8,0.83 -0.5,0 -0.89,-0.31 -0.89,-0.83 0,-0.21 0.09,-0.45 0.24,-0.61l-0.29 -0.28z"/>
  <polygon id="_1_26" class="fil1" points="149.86,5.92 149.86,5.47 147.45,5.47 147.45,5.99 148.48,6.74 147.45,7.49 147.45,8.02 149.86,8.02 149.86,7.56 148.1,7.56 149.15,6.8 149.15,6.71 148.11,5.92 "/>
  <path id="_2_27" class="fil1" d="M148.81 4.61l0 -0.69c0,-0.19 0.11,-0.45 0.33,-0.45 0.23,0 0.29,0.26 0.29,0.45l0 0.69 -0.62 0zm-0.95 0l0 -0.69c0,-0.29 0.19,-0.38 0.3,-0.38 0.14,0 0.26,0.09 0.26,0.38l0 0.69 -0.55 0zm-0.41 -0.69c0,0.38 0,0.76 0,1.14l2.41 0c0,-0.38 0,-0.76 0,-1.14 0,-0.5 -0.17,-0.9 -0.71,-0.9 -0.15,0 -0.45,0.1 -0.54,0.39 -0.1,-0.22 -0.28,-0.31 -0.46,-0.31 -0.48,0 -0.7,0.35 -0.7,0.83z"/>
  <polygon id="_3_28" class="fil1" points="149.86,0.6 147.45,0.6 147.45,1.05 148.46,1.05 148.46,2.23 147.45,2.23 147.45,2.69 149.86,2.69 149.86,2.23 148.88,2.23 148.88,1.05 149.86,1.05 "/>
 </g>
</svg>
