<?xml version="1.0" encoding="UTF-8"?>
<!DOCTYPE svg PUBLIC "-//W3C//DTD SVG 1.1//EN" "http://www.w3.org/Graphics/SVG/1.1/DTD/svg11.dtd">
<!-- Creator: CorelDRAW 2026 -->
<svg xmlns="http://www.w3.org/2000/svg" xml:space="preserve" width="63.9652mm" height="17.6233mm" version="1.1" style="shape-rendering:geometricPrecision; text-rendering:geometricPrecision; image-rendering:optimizeQuality; fill-rule:evenodd; clip-rule:evenodd"
viewBox="0 0 197.28 54.35"
 xmlns:xlink="http://www.w3.org/1999/xlink"
 xmlns:xodm="http://www.corel.com/coreldraw/odm/2003">
 <defs>
  <style type="text/css">
   <![CDATA[
    .fil0 {fill:red}
    .fil1 {fill:white;fill-rule:nonzero}
   ]]>
  </style>
 </defs>
 <g id="Layer_x0020_1">
  <metadata id="CorelCorpID_0Corel-Layer"/>
  <polygon class="fil0" points="-0,0.79 -0,18.57 51.24,18.57 51.24,0.79 "/>
  <path class="fil0" d="M-0 54.35l29.85 0 0 -28.79 -29.85 0 0 28.79zm12.21 -23.56l5.43 0 0 6.45 6.45 0 0 5.43 -6.45 0 0 6.45 -5.43 0 0 -6.45 -6.45 0 0 -5.43 6.45 0 0 -6.45z"/>
  <polygon class="fil0" points="36.87,54.35 51.24,54.35 51.24,25.56 36.87,25.56 "/>
  <path class="fil1" d="M77.89 39.61l7.32 0 0 -32.18 12.32 0 0 -6.66c-11.26,0 -20.75,0 -31.96,0l0 6.66 12.32 0 0 32.18z"/>
  <path id="_1" class="fil1" d="M120.22 0c-13.43,0 -19.97,10.26 -19.97,20.47 0,10.21 6.32,20.03 19.97,20.03 13.65,0 19.81,-10.04 19.92,-20.08 0.11,-10.15 -6.55,-20.42 -19.92,-20.42zm0 6.66c9.15,0 12.82,7.32 12.71,13.87 -0.11,6.38 -3.55,13.26 -12.71,13.26 -9.15,0 -12.59,-6.82 -12.76,-13.2 -0.17,-6.55 3.61,-13.93 12.76,-13.93z"/>
  <polygon id="_2" class="fil1" points="171.04,24.86 152.01,0.78 146.07,0.78 146.07,39.61 153.39,39.61 153.39,13.43 173.81,39.67 173.81,39.61 178.36,39.61 178.36,0.72 171.04,0.72 "/>
  <polygon id="_3" class="fil1" points="192.4,39.61 192.4,0.78 185.13,0.78 185.13,39.61 "/>
  <path class="fil1" d="M81.73 45.5c3.13,0 3.13,4.82 0,4.82l-3.4 0 0 -4.82 3.4 0zm0 5.48c4.08,0 4.08,-6.15 0,-6.15 -1.37,0 -2.75,0 -4.12,0l0 9.4 0.73 0 0 -3.25 3.4 0z"/>
  <polygon id="_1_0" class="fil1" points="87.76,44.83 87.76,54.23 93.78,54.23 93.78,53.55 88.49,53.55 88.49,44.83 "/>
  <path id="_2_1" class="fil1" d="M104.78 54.23l-4.22 -9.4 -0.79 0 -4.22 9.4 0.78 0 1.02 -2.31 5.61 0 1.03 2.31 0.78 0zm-7.14 -2.98l2.52 -5.72 2.52 5.72 -5.05 0z"/>
  <polygon id="_3_2" class="fil1" points="108.49,54.23 109.22,54.23 109.22,45.49 112.61,45.49 112.61,44.85 105.1,44.85 105.1,45.49 108.49,45.49 "/>
  <polygon id="_4" class="fil1" points="118.03,54.23 118.76,54.23 118.76,45.49 122.15,45.49 122.15,44.85 114.63,44.85 114.63,45.49 118.03,45.49 "/>
  <polygon id="_5" class="fil1" points="125.61,45.52 131.38,45.52 131.38,44.83 124.9,44.83 124.9,54.23 131.54,54.23 131.54,53.53 125.61,53.53 125.61,49.83 131.11,49.83 131.11,49.17 125.61,49.17 "/>
  <polygon id="_6" class="fil1" points="134.81,44.83 134.81,54.23 135.54,54.23 135.54,46.47 141.88,54.23 142.16,54.23 142.16,44.83 141.45,44.83 141.45,52.61 135.12,44.83 "/>
  <polygon id="_7" class="fil1" points="145.63,44.83 145.63,54.23 151.64,54.23 151.64,53.55 146.35,53.55 146.35,44.83 "/>
  <polygon id="_8" class="fil1" points="155.1,45.52 160.87,45.52 160.87,44.83 154.39,44.83 154.39,54.23 161.03,54.23 161.03,53.53 155.1,53.53 155.1,49.83 160.6,49.83 160.6,49.17 155.1,49.17 "/>
  <path id="_9" class="fil1" d="M171.82 46.11c-0.95,-0.94 -2.2,-1.41 -3.44,-1.41 -2.86,0 -4.86,1.92 -4.85,4.86 0,2.56 1.65,4.79 4.85,4.79 1.4,0 2.56,-0.54 3.54,-1.52l0 -3.52 -3.96 0 0 0.63 3.28 0 0 2.63c-0.81,0.74 -1.85,1.09 -2.86,1.09 -2.74,0 -4.15,-1.91 -4.15,-4.12 -0.01,-2.18 1.4,-4.19 4.15,-4.19 1.06,0 2.2,0.4 3.02,1.21l0.42 -0.46z"/>
  <polygon id="_10" class="fil1" points="175.98,45.52 181.75,45.52 181.75,44.83 175.26,44.83 175.26,54.23 181.91,54.23 181.91,53.53 175.98,53.53 175.98,49.83 181.48,49.83 181.48,49.17 175.98,49.17 "/>
  <path id="_11" class="fil1" d="M189.07 50.63c2.05,0 3.06,-1.34 3.05,-2.87 -0.01,-1.46 -1.05,-2.93 -3.09,-2.93 -1.38,0 -2.75,0 -4.14,0l0 9.4 0.73 0 0 -3.56 2.56 0 3.25 3.56 0.95 0 -3.32 -3.6zm-3.45 -5.13l3.41 0c1.56,0 2.31,1.14 2.3,2.24 -0.01,1.32 -0.74,2.24 -2.38,2.24l-3.33 0 0 -4.48z"/>
  <path class="fil1" d="M194.43 11.13c-0.32,0.33 -0.48,0.75 -0.48,1.18 0,1.12 0.82,1.68 1.72,1.68 0.83,0 1.62,-0.48 1.62,-1.68 0,-0.56 -0.21,-0.95 -0.57,-1.26l-1.34 0 0 1.36 0.53 0 0 -0.81 0.56 0c0.2,0.25 0.25,0.47 0.25,0.72 0,0.79 -0.54,1.09 -1.06,1.09 -0.65,0 -1.17,-0.41 -1.17,-1.09 0,-0.28 0.11,-0.59 0.32,-0.81l-0.38 -0.37z"/>
  <polygon id="_1_3" class="fil1" points="197.21,7.79 197.21,7.19 194.04,7.19 194.04,7.88 195.4,8.87 194.04,9.86 194.04,10.55 197.21,10.55 197.21,9.95 194.91,9.95 196.29,8.94 196.29,8.82 194.91,7.79 "/>
  <path id="_2_4" class="fil1" d="M195.83 6.06l0 -0.91c0,-0.24 0.15,-0.59 0.43,-0.59 0.3,0 0.38,0.35 0.38,0.59l0 0.91 -0.81 0zm-1.25 0l0 -0.91c0,-0.38 0.24,-0.5 0.39,-0.5 0.18,0 0.34,0.12 0.34,0.5l0 0.91 -0.73 0zm-0.54 -0.91c0,0.5 0,1.01 0,1.5l3.17 0c0,-0.5 0,-1 0,-1.5 0,-0.66 -0.23,-1.19 -0.93,-1.19 -0.2,0 -0.59,0.14 -0.71,0.51 -0.13,-0.29 -0.37,-0.41 -0.61,-0.41 -0.64,0 -0.92,0.47 -0.92,1.09z"/>
  <polygon id="_3_5" class="fil1" points="197.21,0.79 194.04,0.79 194.04,1.38 195.38,1.38 195.38,2.94 194.04,2.94 194.04,3.54 197.21,3.54 197.21,2.94 195.93,2.94 195.93,1.38 197.21,1.38 "/>
 </g>
</svg>
